<svg width="32" height="32" viewBox="0 0 32 32" fill="none" xmlns="http://www.w3.org/2000/svg">
<circle cx="16" cy="16" r="16" fill="#025373"/>
<path d="M10.204 12.516C10.1107 12.516 10.0313 12.4833 9.966 12.418C9.90067 12.3527 9.868 12.2733 9.868 12.18V11.172C9.868 11.0787 9.90067 10.9993 9.966 10.934C10.0313 10.8687 10.1107 10.836 10.204 10.836H11.478C11.5713 10.836 11.6507 10.8687 11.716 10.934C11.7907 10.9993 11.828 11.0787 11.828 11.172V12.18C11.828 12.2733 11.7953 12.3527 11.73 12.418C11.6647 12.4833 11.5807 12.516 11.478 12.516H10.204ZM10.26 21C10.1667 21 10.0873 20.9673 10.022 20.902C9.95667 20.8367 9.924 20.7573 9.924 20.664V14.056C9.924 13.9627 9.95667 13.8833 10.022 13.818C10.0873 13.7527 10.1667 13.72 10.26 13.72H11.422C11.5247 13.72 11.604 13.7527 11.66 13.818C11.7253 13.874 11.758 13.9533 11.758 14.056V20.664C11.758 20.7573 11.7253 20.8367 11.66 20.902C11.604 20.9673 11.5247 21 11.422 21H10.26ZM13.9514 21C13.8581 21 13.7787 20.9673 13.7134 20.902C13.6481 20.8367 13.6154 20.7573 13.6154 20.664V14.056C13.6154 13.9627 13.6481 13.8833 13.7134 13.818C13.7787 13.7527 13.8581 13.72 13.9514 13.72H15.0994C15.1927 13.72 15.2721 13.7527 15.3374 13.818C15.4027 13.8833 15.4354 13.9627 15.4354 14.056V14.63C15.9861 13.93 16.7654 13.58 17.7734 13.58C18.6321 13.58 19.3134 13.8647 19.8174 14.434C20.3214 14.994 20.5734 15.7593 20.5734 16.73V20.664C20.5734 20.7573 20.5407 20.8367 20.4754 20.902C20.4194 20.9673 20.3401 21 20.2374 21H19.0054C18.9121 21 18.8327 20.9673 18.7674 20.902C18.7021 20.8367 18.6694 20.7573 18.6694 20.664V16.814C18.6694 16.2633 18.5341 15.8387 18.2634 15.54C18.0021 15.232 17.6194 15.078 17.1154 15.078C16.6207 15.078 16.2287 15.232 15.9394 15.54C15.6594 15.848 15.5194 16.2727 15.5194 16.814V20.664C15.5194 20.7573 15.4867 20.8367 15.4214 20.902C15.3654 20.9673 15.2861 21 15.1834 21H13.9514Z" fill="#F2F2F2"/>
</svg>
