<svg width="32" height="32" viewBox="0 0 32 32" fill="none" xmlns="http://www.w3.org/2000/svg">
<circle cx="16" cy="16" r="16" fill="#025373"/>
<path d="M15.5293 20.1038C13.4858 20.1038 11.8232 18.4485 11.8232 16.3977C11.8232 14.3542 13.4785 12.6917 15.5293 12.6917C17.5727 12.6917 19.2353 14.3469 19.2353 16.3977C19.228 18.4485 17.5727 20.1038 15.5293 20.1038ZM15.5293 14.032C14.2183 14.032 13.1562 15.094 13.1562 16.405C13.1562 17.7161 14.2183 18.7781 15.5293 18.7781C16.8403 18.7781 17.9023 17.7161 17.9023 16.405C17.9023 15.094 16.833 14.032 15.5293 14.032Z" fill="#F2F2F2"/>
<path d="M23 13.519V19.481C23 21.9785 20.9785 24 18.481 24H12.519C10.0215 24 8 21.9785 8 19.481V13.519C8 11.0215 10.0215 9 12.519 9H18.481C20.9785 9 23 11.0215 23 13.519ZM9.41357 13.519V19.481C9.41357 21.1948 10.8052 22.5864 12.519 22.5864H18.481C20.1948 22.5864 21.5864 21.1948 21.5864 19.481V13.519C21.5864 11.8052 20.1948 10.4136 18.481 10.4136H12.519C10.8052 10.4136 9.41357 11.8052 9.41357 13.519Z" fill="#F2F2F2"/>
<path d="M19.4478 19.4734C19.9312 19.4734 20.3267 19.8689 20.3267 20.3523C20.3267 20.8357 19.9312 21.2312 19.4478 21.2312C18.9644 21.2312 18.5688 20.8357 18.5688 20.3523C18.5688 19.8616 18.9644 19.4734 19.4478 19.4734Z" fill="#F2F2F2"/>
</svg>
