<svg width="32" height="32" viewBox="0 0 32 32" fill="none" xmlns="http://www.w3.org/2000/svg">
<circle cx="16" cy="16" r="16" fill="#025373"/>
<path d="M23 11.4255C22.4484 11.6598 21.8481 11.8284 21.2298 11.8941C21.8717 11.5185 22.3525 10.9252 22.5818 10.2255C21.9794 10.5783 21.3195 10.8258 20.6313 10.9568C20.3437 10.654 19.9958 10.4128 19.6094 10.2482C19.2229 10.0836 18.8062 9.99909 18.3852 10C16.6816 10 15.3116 11.3598 15.3116 13.0284C15.3116 13.2627 15.3405 13.497 15.3873 13.7225C12.8366 13.5911 10.5616 12.3911 9.04915 10.5539C8.77357 11.0174 8.62916 11.5451 8.63093 12.0823C8.63093 13.1331 9.17354 14.0598 10.001 14.6047C9.51335 14.5858 9.03715 14.4538 8.6111 14.2195V14.2568C8.6111 15.7284 9.66747 16.9479 11.0754 17.2284C10.811 17.296 10.5391 17.3306 10.266 17.3314C10.0659 17.3314 9.87658 17.3118 9.68549 17.2852C10.0749 18.4852 11.2087 19.3568 12.5589 19.3852C11.5026 20.2 10.1794 20.6793 8.7427 20.6793C8.48492 20.6793 8.24697 20.6704 8 20.642C9.36282 21.503 10.9798 22 12.7212 22C18.3744 22 21.4677 17.3882 21.4677 13.3852C21.4677 13.2539 21.4677 13.1225 21.4587 12.9911C22.0572 12.5598 22.5818 12.0254 23 11.4255Z" fill="#F2F2F2"/>
</svg>
